<svg xmlns="http://www.w3.org/2000/svg" viewBox="0 0 300 500"><defs><style>.cls-1{fill:#733005;}.cls-2{font-size:38.12px;font-family:TimesNewRomanPS-BoldMT, Times New Roman;}.cls-10,.cls-2,.cls-7{fill:#fff;}.cls-13,.cls-19,.cls-2,.cls-21,.cls-22,.cls-7{font-weight:700;}.cls-12,.cls-17,.cls-3,.cls-6,.cls-9{fill:none;stroke-miterlimit:10;}.cls-3{stroke:#733005;stroke-width:9px;}.cls-4{fill:#535353;}.cls-5{fill:#f6be8f;}.cls-17,.cls-6{stroke:#000;}.cls-6{stroke-width:3px;}.cls-7{font-size:8.07px;}.cls-13,.cls-19,.cls-21,.cls-22,.cls-7{font-family:IBMPlexSansThai-Bold, IBM Plex Sans Thai;}.cls-8{letter-spacing:-0.01em;}.cls-12,.cls-9{stroke:#fff;}.cls-9{stroke-width:2px;}.cls-11{letter-spacing:0.03em;}.cls-13{font-size:12px;}.cls-14{letter-spacing:-0.01em;}.cls-15{letter-spacing:-0.01em;}.cls-16{fill:#e8e8e8;}.cls-17{stroke-width:0.25px;}.cls-18{fill:#ff0;}.cls-19{font-size:8.15px;fill:red;}.cls-20{letter-spacing:-0.01em;}.cls-21{font-size:13.05px;}.cls-22{font-size:8.97px;}.cls-23{letter-spacing:-0.01em;}</style></defs><g id="board"><rect class="cls-1" x="33.01" y="74.43" width="239.06" height="186.57"/><rect x="44.55" y="83.43" width="216" height="168.57"/></g><g id="Layer_1" data-name="Layer 1"><text class="cls-2" transform="translate(69.02 155.81)">4</text><text class="cls-2" transform="translate(119.02 155.81)">9</text><text class="cls-2" transform="translate(169.02 155.81)">5</text><text class="cls-2" transform="translate(219.02 155.81)">7</text><text class="cls-2" transform="translate(132.58 218.81)">88</text></g><g id="Layer_4" data-name="Layer 4"><line class="cls-3" x1="182" y1="153" x2="230.31" y2="319.28"/></g><g id="Layer_3" data-name="Layer 3"><polygon class="cls-4" points="216.37 285.17 242.27 263.58 287.5 325.51 282.45 343.58 268.87 353.96 216.37 285.17"/><polygon class="cls-5" points="218.56 283.55 207.01 286.93 192.02 277.55 192.93 260.43 175.86 255.64 175.66 248.44 211.59 253.23 212.54 247.93 205.66 240.08 211.39 236.59 221.66 246.56 234.26 269.78 218.56 283.55"/><polyline class="cls-6" points="198.76 260.53 211.58 262.66 210.26 269.98 207.75 283.86"/><line class="cls-6" x1="197.06" y1="268.91" x2="210.26" y2="269.98"/><line class="cls-6" x1="197.26" y1="276.12" x2="208.89" y2="277.58"/></g><g id="text"><text class="cls-7" transform="translate(69.24 231.41)"><tspan class="cls-8">ค</tspan><tspan x="5.33" y="0">ำตอบที่ต้อง</tspan><tspan class="cls-8" x="44.59" y="0">ก</tspan><tspan x="49.67" y="0">าร!</tspan></text><path class="cls-9" d="M97,220s-12-33,21-25"/><polygon class="cls-10" points="116.86 196.98 121.07 195.74 117.89 192.72 116.86 196.98"/><text class="cls-7" transform="translate(131.95 102.42)">ตัวเลขที<tspan class="cls-11" x="26.86" y="0">่</tspan><tspan x="27.1" y="0">ใช้!!</tspan></text><line class="cls-12" x1="144" y1="108" x2="130.32" y2="120.07"/><polygon class="cls-10" points="130.1 118.33 127 123 132.03 120.5 130.1 118.33"/><line class="cls-12" x1="159.59" y1="107.05" x2="173.26" y2="119.12"/><polygon class="cls-10" points="171.56 119.56 176.59 122.05 173.48 117.38 171.56 119.56"/><line class="cls-12" x1="201.59" y1="108.05" x2="215.26" y2="120.12"/><polygon class="cls-10" points="213.56 120.56 218.59 123.05 215.48 118.38 213.56 120.56"/><line class="cls-12" x1="102.59" y1="107.05" x2="88.91" y2="119.12"/><polygon class="cls-10" points="88.69 117.38 85.58 122.05 90.61 119.56 88.69 117.38"/><text class="cls-13" transform="translate(61.88 47.13)">ผู้เล่นจะต้องใช้ตัวเลขที่<tspan class="cls-14" x="111.29" y="0">ก</tspan><tspan x="118.85" y="0">ำหนดให้4ตัว</tspan><tspan x="16.58" y="14.4">เ</tspan><tspan class="cls-15" x="20.5" y="14.4">พ</tspan><tspan x="29.33" y="14.4">ื่อ</tspan><tspan class="cls-14" x="36.49" y="14.4">ค</tspan><tspan x="44.41" y="14.4">ำ</tspan><tspan class="cls-15" x="50.64" y="14.4">น</tspan><tspan x="58.09" y="14.4">วนหา</tspan><tspan class="cls-14" x="85.69" y="14.4">ค</tspan><tspan x="93.61" y="14.4">ำตอบ1-2หลัก</tspan></text></g><g id="Layer_6" data-name="Layer 6"><g id="_1" data-name="1"><rect class="cls-16" x="16.64" y="287.9" width="133.71" height="177.2" transform="translate(76.32 -9.08) rotate(11.44)"/><line class="cls-17" x1="4.79" y1="428.37" x2="135.85" y2="454.89"/><line class="cls-17" x1="9.19" y1="406.66" x2="140.24" y2="433.18"/><line class="cls-17" x1="13.58" y1="384.95" x2="144.64" y2="411.47"/><line class="cls-17" x1="17.97" y1="363.24" x2="149.03" y2="389.76"/><line class="cls-17" x1="22.36" y1="341.53" x2="153.42" y2="368.05"/><line class="cls-17" x1="26.76" y1="319.82" x2="157.81" y2="346.34"/><line class="cls-17" x1="31.15" y1="298.11" x2="162.21" y2="324.63"/><line class="cls-17" x1="153.49" y1="300.27" x2="118.35" y2="473.95"/><line class="cls-17" x1="140.39" y1="297.62" x2="105.25" y2="471.29"/><line class="cls-17" x1="127.28" y1="294.96" x2="92.14" y2="468.64"/><line class="cls-17" x1="114.18" y1="292.31" x2="79.04" y2="465.99"/><line class="cls-17" x1="101.07" y1="289.66" x2="65.93" y2="463.34"/><line class="cls-17" x1="87.96" y1="287.01" x2="52.82" y2="460.69"/><line class="cls-17" x1="74.86" y1="284.36" x2="39.72" y2="458.04"/><line class="cls-17" x1="61.75" y1="281.71" x2="26.61" y2="455.38"/><line class="cls-17" x1="48.65" y1="279.05" x2="13.51" y2="452.73"/><rect class="cls-18" x="15.52" y="422.91" width="83.71" height="11.96" transform="translate(86.19 -2.86) rotate(11.44)"/><rect class="cls-18" x="52.48" y="388.24" width="83.71" height="11.96" transform="translate(80.05 -10.88) rotate(11.44)"/><rect x="41.06" y="311.32" width="80.45" height="15.22" transform="translate(64.86 -9.79) rotate(11.44)"/><text class="cls-19" transform="translate(67.09 318.03) rotate(11.44)">sec<tspan class="cls-20" x="12.91" y="0">r</tspan><tspan x="16.16" y="0">et</tspan></text><text class="cls-21" transform="translate(66.33 370.11) rotate(11.44)">?13123?23!</text><text class="cls-21" transform="translate(73.66 394.49) rotate(11.44)">31231!i</text><text class="cls-22" transform="translate(27.29 420.93) rotate(11.44)">อย่าเรียก<tspan class="cls-23" x="34.42" y="0">ว</tspan><tspan x="39.07" y="0">่าที่รัก</tspan><tspan class="cls-23" x="-7.23" y="10.77">ถ</tspan><tspan x="-1.58" y="10.77">้าไม่รักอย่างที่เรียก</tspan></text></g></g></svg>