<svg xmlns="http://www.w3.org/2000/svg" viewBox="0 0 299.3 500"><defs><style>.cls-1{fill:#875129;}.cls-13,.cls-2,.cls-3,.cls-5,.cls-6,.cls-8{fill:none;stroke-miterlimit:10;}.cls-13,.cls-2,.cls-5,.cls-6,.cls-8{stroke:#000;}.cls-2{stroke-width:3px;}.cls-3{stroke:#fff;}.cls-13,.cls-3,.cls-5{stroke-width:2px;}.cls-4{fill:#39b54a;}.cls-6{stroke-width:4px;}.cls-7{fill:blue;}.cls-8{stroke-width:7px;}.cls-9{fill:red;}.cls-10{fill:#1b1464;}.cls-11{fill:#603813;}.cls-12{font-size:21.03px;}.cls-12,.cls-14{font-family:TimesNewRomanPS-BoldMT, Times New Roman;font-weight:700;}.cls-13{stroke-dasharray:5;}.cls-14{font-size:21.32px;}.cls-15{font-family:THSarabunPSK, TH SarabunPSK;font-weight:400;}</style></defs><g id="Layer_9" data-name="Layer 9"><polygon points="27.11 68.84 52.18 81.04 62.35 77.65 73.87 84.42 92.17 55.96 81.32 49.19 79.29 41.05 0 2 0 57.32 27.11 68.84"/><polygon class="cls-1" points="75.9 81.71 115.88 114.24 132.15 111.53 131.13 103 118.9 103 111.14 92.56 118.59 81.04 130.79 83.07 131.47 100.01 140.28 98.66 144.35 73.58 164 69.52 161.29 60.03 153.84 62.06 151.8 54.61 140.96 57.99 138.25 52.57 111.14 62.74 96.23 61.38 90.81 57.99 75.9 81.71"/><line class="cls-2" x1="119.95" y1="64.09" x2="138.93" y2="58"/><line class="cls-2" x1="123.68" y1="67.82" x2="152" y2="61.04"/><line class="cls-2" x1="118.26" y1="69.85" x2="141.98" y2="73.24"/><polyline class="cls-3" points="64.04 75.95 77.86 53.12 79.63 50.2"/><line class="cls-3" x1="87.06" y1="59.83" x2="77.86" y2="53.12"/><line class="cls-3" x1="83.69" y1="67.14" x2="73.8" y2="59.83"/><line class="cls-3" x1="79.63" y1="71.55" x2="69.97" y2="66.17"/><line class="cls-3" x1="74.8" y1="78.67" x2="65.26" y2="73.24"/></g><g id="Layer_11" data-name="Layer 11"><polygon class="cls-4" points="137.65 99.88 143.19 95.99 180.13 102.46 183.89 107.81 173.42 167.62 167.95 171.46 129.99 164.82 126.63 160.03 137.65 99.88"/><polygon class="cls-5" points="139.87 104.14 144.71 100.73 177.01 106.39 180.29 111.06 171.14 163.35 166.36 166.71 133.18 160.91 130.23 156.71 139.87 104.14"/><line class="cls-6" x1="151.17" y1="127.46" x2="159.7" y2="139.61"/><line class="cls-6" x1="149.07" y1="138.01" x2="161.68" y2="129.15"/><polygon class="cls-7" points="2.31 373.31 5.56 363.49 56.77 337.72 66.26 340.86 107.98 423.77 104.77 433.47 52.16 459.94 43.65 457.13 2.31 373.31"/><polygon class="cls-5" points="8.91 376.5 11.75 367.91 56.52 345.38 64.81 348.13 101.29 420.61 98.48 429.09 52.49 452.24 45.05 449.78 8.91 376.5"/><line class="cls-8" x1="49.79" y1="388.28" x2="60" y2="408.56"/><line class="cls-8" x1="44.27" y1="403.77" x2="65.31" y2="393.18"/><polygon class="cls-9" points="51.48 348.87 56.72 339.95 112.2 325.52 120.82 330.58 144.17 420.41 139 429.22 81.99 444.04 74.27 439.51 51.48 348.87"/><polygon class="cls-5" points="57.26 353.38 61.84 345.57 110.35 332.96 117.88 337.39 138.3 415.92 133.77 423.62 83.94 436.58 77.19 432.61 57.26 353.38"/><line class="cls-8" x1="86.1" y1="387.46" x2="108.9" y2="381.54"/><polygon class="cls-4" points="110.82 332.32 118.14 325 175.47 325 182.54 332.07 182.54 424.88 175.31 432.11 116.41 432.11 110.08 425.77 110.82 332.32"/><polygon class="cls-5" points="115.29 338.13 121.69 331.74 171.8 331.74 177.98 337.91 177.98 419.06 171.66 425.37 120.17 425.37 114.64 419.83 115.29 338.13"/><line class="cls-8" x1="138.45" y1="370.27" x2="154.5" y2="386.33"/><line class="cls-8" x1="138.07" y1="386.71" x2="154.73" y2="370.05"/><polygon class="cls-10" points="177.85 334.02 186.48 328.3 242.66 339.67 248.19 348 229.78 438.97 221.27 444.62 163.54 432.94 158.59 425.47 177.85 334.02"/><polygon class="cls-5" points="181.07 340.61 188.61 335.61 237.74 345.54 242.56 352.82 226.47 432.35 219.03 437.29 168.56 427.08 164.23 420.56 181.07 340.61"/><line class="cls-8" x1="202.54" y1="391.96" x2="201.45" y2="397.37"/><line class="cls-8" x1="192.04" y1="383.89" x2="215.13" y2="388.56"/><line class="cls-8" x1="205.95" y1="375.12" x2="204.76" y2="380.99"/><polygon class="cls-11" points="236.78 344.22 246.59 340.92 297.92 366.44 301.11 375.91 259.8 459.03 250.12 462.28 197.37 436.07 194.52 427.58 236.78 344.22"/><polygon class="cls-5" points="238.18 351.41 246.76 348.53 291.64 370.83 294.43 379.12 258.31 451.78 249.85 454.63 203.74 431.71 201.24 424.29 238.18 351.41"/><text class="cls-12" transform="matrix(0.9, 0.45, -0.45, 0.9, 227.54, 406.12)">X</text><rect class="cls-13" x="253.14" y="389.38" width="22.48" height="13.76" transform="translate(-208.13 456.67) rotate(-63.58)"/><text class="cls-14" transform="translate(30.82 254.37)">(9<tspan class="cls-15" x="17.76" y="0">*</tspan><tspan x="23.84" y="0">7) + (5*4) = 63 +20 = 83</tspan></text></g></svg>