<svg xmlns="http://www.w3.org/2000/svg" viewBox="0 0 299.3 500"><defs><style>.cls-1{fill:blue;}.cls-11,.cls-2,.cls-3,.cls-9{fill:none;stroke:#000;stroke-miterlimit:10;}.cls-2,.cls-9{stroke-width:2px;}.cls-3{stroke-width:7px;}.cls-4{fill:red;}.cls-5{fill:#39b54a;}.cls-6{fill:#1b1464;}.cls-7{fill:#603813;}.cls-8{font-size:20.76px;font-family:TimesNewRomanPS-BoldMT, Times New Roman;font-weight:700;}.cls-9{stroke-dasharray:5;}.cls-10{fill:#fff;}.cls-11{stroke-width:4px;}.cls-12{font-size:12px;font-family:IBMPlexSansThai-Regular, IBM Plex Sans Thai;}.cls-13{letter-spacing:-0.01em;}</style></defs><g id="Layer_12" data-name="Layer 12"><polygon class="cls-1" points="39.03 63.84 46.25 56.61 102.86 56.61 109.84 63.59 109.84 155.25 102.71 162.38 44.54 162.38 38.29 156.13 39.03 63.84"/><polygon class="cls-2" points="43.43 69.58 49.75 63.27 99.24 63.27 105.34 69.36 105.34 149.49 99.11 155.73 48.26 155.73 42.79 150.26 43.43 69.58"/><line class="cls-3" x1="74.27" y1="98.12" x2="74.27" y2="120.53"/><line class="cls-3" x1="62.52" y1="109.33" x2="85.79" y2="109.33"/><polygon class="cls-4" points="183.18 63.64 190.41 56.42 247.02 56.42 254 63.39 254 155.05 246.86 162.18 188.7 162.18 182.44 155.93 183.18 63.64"/><polygon class="cls-2" points="187.59 69.39 193.91 63.07 243.4 63.07 249.5 69.17 249.5 149.29 243.26 155.53 192.41 155.53 186.94 150.06 187.59 69.39"/><line class="cls-3" x1="206.68" y1="109.13" x2="229.94" y2="109.13"/><polygon class="cls-5" points="77.54 207.22 84.77 199.99 141.38 199.99 148.35 206.97 148.35 298.62 141.22 305.76 83.06 305.76 76.8 299.5 77.54 207.22"/><polygon class="cls-2" points="81.95 212.96 88.26 206.64 137.75 206.64 143.85 212.74 143.85 292.87 137.62 299.11 86.77 299.11 81.3 293.64 81.95 212.96"/><line class="cls-3" x1="104.82" y1="244.7" x2="120.67" y2="260.55"/><line class="cls-3" x1="104.44" y1="260.93" x2="120.89" y2="244.48"/><polygon class="cls-6" points="37.05 345.87 44.28 338.65 100.89 338.65 107.87 345.63 107.87 437.28 100.74 444.41 42.57 444.41 36.32 438.16 37.05 345.87"/><polygon class="cls-2" points="41.46 351.62 47.78 345.3 97.27 345.3 103.37 351.4 103.37 431.53 97.13 437.76 46.28 437.76 40.82 432.3 41.46 351.62"/><line class="cls-3" x1="72.3" y1="397.12" x2="72.3" y2="402.57"/><line class="cls-3" x1="60.55" y1="391.36" x2="83.82" y2="391.36"/><line class="cls-3" x1="72.3" y1="380.15" x2="72.3" y2="386.07"/><polygon class="cls-7" points="183.89 345.42 191.11 338.19 247.72 338.19 254.7 345.17 254.7 436.83 247.57 443.96 189.4 443.96 183.15 437.71 183.89 345.42"/><polygon class="cls-2" points="188.29 351.16 194.61 344.85 244.1 344.85 250.2 350.95 250.2 431.07 243.97 437.31 193.12 437.31 187.65 431.84 188.29 351.16"/><text class="cls-8" transform="translate(202.94 404.17)">X</text><rect class="cls-9" x="224.37" y="368.21" width="13.59" height="22.19"/><path class="cls-10" d="M99.2,467.5s69.38-36.23,21.69-86.12"/><path class="cls-11" d="M99.2,467.5s65.51-34.21,25.47-81.91"/><polygon points="120.89 381.38 128.61 385.17 124.93 385.92 123.75 389.49 120.89 381.38"/><text class="cls-12" transform="translate(33.4 480.11)">1/2 = 1 หาร 2</text><text class="cls-12" transform="translate(169.83 324.53)">2**2 คือ 2 ยก<tspan class="cls-13" x="70.31" y="0">ก</tspan><tspan x="77.52" y="0">ำลัง 2</tspan></text><path class="cls-11" d="M185,330.6s-61.44,41.07-16.48,84.18"/><polygon points="172.7 418.56 164.62 415.62 168.2 414.48 168.98 410.8 172.7 418.56"/><text class="cls-12" transform="translate(166.52 249.53)">2*2 คือ 2 คูณ 2</text><text class="cls-12" transform="translate(33.32 184.28)">2+2 คือ 2 บวก 2</text><text class="cls-12" transform="translate(185.27 182.28)">2-2 คือ 2 ลบ 2</text><path class="cls-11" d="M168,89.82s-49.24,55.12,5.06,85.63"/><polygon points="178.03 178.06 169.47 177.24 172.66 175.23 172.49 171.48 178.03 178.06"/><path class="cls-11" d="M119.88,81.49s49.24,55.12-5.06,85.63"/><polygon points="109.81 169.73 115.35 163.15 115.19 166.91 118.37 168.91 109.81 169.73"/></g></svg>