<svg xmlns="http://www.w3.org/2000/svg" viewBox="0 0 299.3 500"><defs><style>.cls-1{fill:#e8e8e8;}.cls-2{fill:none;stroke:#000;stroke-miterlimit:10;stroke-width:0.25px;}.cls-3{font-size:91.01px;}.cls-11,.cls-3{fill:red;}.cls-3,.cls-4{font-family:IBMPlexSansThai-Regular, IBM Plex Sans Thai;}.cls-4{font-size:22.49px;}.cls-5{font-size:19.9px;}.cls-11,.cls-5,.cls-9{font-family:IBMPlexSansThai-Bold, IBM Plex Sans Thai;font-weight:700;}.cls-6{letter-spacing:-0.01em;}.cls-7{letter-spacing:-0.01em;}.cls-8{letter-spacing:0em;}.cls-11,.cls-9{font-size:26.78px;}.cls-10{letter-spacing:-0.03em;}</style></defs><g id="Layer_6" data-name="Layer 6"><rect class="cls-1" x="62.32" y="222.6" width="201.78" height="267.4"/><line class="cls-2" x1="62.32" y1="456.57" x2="264.1" y2="456.57"/><line class="cls-2" x1="62.32" y1="423.15" x2="264.1" y2="423.15"/><line class="cls-2" x1="62.32" y1="389.72" x2="264.1" y2="389.72"/><line class="cls-2" x1="62.32" y1="356.3" x2="264.1" y2="356.3"/><line class="cls-2" x1="62.32" y1="322.87" x2="264.1" y2="322.87"/><line class="cls-2" x1="62.32" y1="289.45" x2="264.1" y2="289.45"/><line class="cls-2" x1="62.32" y1="256.02" x2="264.1" y2="256.02"/><line class="cls-2" x1="243.93" y1="222.6" x2="243.93" y2="490"/><line class="cls-2" x1="223.75" y1="222.6" x2="223.75" y2="490"/><line class="cls-2" x1="203.57" y1="222.6" x2="203.57" y2="490"/><line class="cls-2" x1="183.39" y1="222.6" x2="183.39" y2="490"/><line class="cls-2" x1="163.21" y1="222.6" x2="163.21" y2="490"/><line class="cls-2" x1="143.03" y1="222.6" x2="143.03" y2="490"/><line class="cls-2" x1="122.86" y1="222.6" x2="122.86" y2="490"/><line class="cls-2" x1="102.68" y1="222.6" x2="102.68" y2="490"/><line class="cls-2" x1="82.5" y1="222.6" x2="82.5" y2="490"/></g><g id="Layer_12" data-name="Layer 12"><text class="cls-3" transform="translate(44.84 92.27)">!</text><text class="cls-3" transform="translate(258.55 330.76)">!</text><text class="cls-3" transform="translate(207.55 37.76)">!</text><text class="cls-3" transform="translate(26.55 376.76)">!</text><text class="cls-3" transform="translate(57.55 278.76)">!</text><text class="cls-3" transform="translate(189.55 180.76)">!</text><text class="cls-4" transform="translate(30.89 157.33)">(อันดับที่ 1) + (อันดับที่ 2)</text><text class="cls-5" transform="translate(102.79 80.42)"><tspan class="cls-6">จ</tspan><tspan x="11.08" y="0">ำเป็นต้องใส่วงเล็บใน</tspan><tspan class="cls-6" x="28.84" y="23.88">ก</tspan><tspan x="41.38" y="23.88">าร</tspan><tspan class="cls-7" x="62.69" y="23.88">ด</tspan><tspan x="75.09" y="23.88">ำเนิ</tspan><tspan class="cls-8" x="104.46" y="23.88">น</tspan><tspan class="cls-6" x="116.92" y="23.88">ก</tspan><tspan x="129.46" y="23.88">าร</tspan></text><text class="cls-9" transform="translate(99.94 282.7)">120 วิ<tspan class="cls-10" x="68.66" y="0">น</tspan><tspan x="84.89" y="0">าที !</tspan></text><text class="cls-9" transform="translate(99.94 307.7)">120 วิ<tspan class="cls-10" x="68.66" y="0">น</tspan><tspan x="84.89" y="0">าที !</tspan></text><text class="cls-9" transform="translate(99.94 332.7)">120 วิ<tspan class="cls-10" x="68.66" y="0">น</tspan><tspan x="84.89" y="0">าที !</tspan></text><text class="cls-11" transform="translate(99.94 357.7)">120 วิ<tspan class="cls-10" x="68.66" y="0">น</tspan><tspan x="84.89" y="0">าที !</tspan></text><text class="cls-9" transform="translate(99.94 382.7)">120 วิ<tspan class="cls-10" x="68.66" y="0">น</tspan><tspan x="84.89" y="0">าที !</tspan></text><text class="cls-9" transform="translate(99.94 407.7)">120 วิ<tspan class="cls-10" x="68.66" y="0">น</tspan><tspan x="84.89" y="0">าที !</tspan></text><text class="cls-9" transform="translate(99.94 432.7)">120 วิ<tspan class="cls-10" x="68.66" y="0">น</tspan><tspan x="84.89" y="0">าที !</tspan></text><text class="cls-9" transform="translate(99.94 457.7)">120 วิ<tspan class="cls-10" x="68.66" y="0">น</tspan><tspan x="84.89" y="0">าที !</tspan></text></g></svg>