<svg xmlns="http://www.w3.org/2000/svg" viewBox="0 0 299.3 500"><defs><style>.cls-1{fill:#535353;}.cls-2{fill:#f6be8f;}.cls-3,.cls-7,.cls-8{fill:none;stroke-miterlimit:10;}.cls-3{stroke:#9b6d4b;}.cls-4{font-size:31.52px;font-family:IBMPlexSansThai-Bold, IBM Plex Sans Thai;font-weight:700;}.cls-5{letter-spacing:0em;}.cls-6{fill:#875129;}.cls-7{stroke:#000;stroke-width:3px;}.cls-8{stroke:#fff;stroke-width:2px;}</style></defs><g id="Layer_3" data-name="Layer 3"><polygon class="cls-1" points="247.12 440.38 294.44 400.93 377.11 514.1 367.86 547.12 343.06 566.08 247.12 440.38"/><polygon class="cls-2" points="251.13 437.41 230.01 443.6 202.63 426.46 204.28 395.16 173.1 386.42 172.72 373.25 238.38 382.01 240.13 372.32 227.55 357.98 238.01 351.6 256.79 369.82 279.81 412.25 251.13 437.41"/><polyline class="cls-3" points="214.94 395.36 238.37 399.25 235.96 412.62 231.37 437.98"/><line class="cls-3" x1="211.83" y1="410.66" x2="235.96" y2="412.62"/><line class="cls-3" x1="212.21" y1="423.83" x2="233.45" y2="426.52"/></g><g id="Layer_12" data-name="Layer 12"><text class="cls-4" transform="translate(42.3 234.18)">ส<tspan class="cls-5" x="20.17" y="0">น</tspan><tspan x="39.91" y="0">ุกไปกับเกม ! !</tspan></text></g><g id="Layer_8" data-name="Layer 8"><polygon points="106.62 559.18 115.38 518.98 106.99 505.58 112.69 486.7 65.51 470.37 59.57 488.28 48.61 494.03 28.73 598.67 99.53 602.06 106.62 559.18"/><polygon class="cls-6" points="108.1 484.73 140.83 416.07 131.28 393.69 119.4 398.13 123.66 415.67 111.38 430.43 92.27 423.75 90.94 405.55 114.99 398.68 109.98 386.51 72.61 389.41 59.94 362.65 47.28 369.84 52.79 379.82 42.81 385.33 51.44 399.7 44.61 405.47 68.62 440.8 71.87 462.65 68.9 471.61 108.1 484.73"/><line class="cls-7" x1="67.5" y1="427.7" x2="52.15" y2="402.61"/><line class="cls-7" x1="71.55" y1="421.06" x2="51.97" y2="382.8"/><line class="cls-7" x1="76.35" y1="428.12" x2="72.95" y2="392.93"/><polyline class="cls-8" points="103.97 503.74 66.41 491.87 61.61 490.36"/><line class="cls-8" x1="72.84" y1="476.34" x2="66.41" y2="491.87"/><line class="cls-8" x1="84.49" y1="478.63" x2="77.46" y2="495.36"/><line class="cls-8" x1="92.22" y1="482.93" x2="87.87" y2="498.65"/><line class="cls-8" x1="104.12" y1="487.37" x2="99.66" y2="502.94"/></g></svg>