<svg xmlns="http://www.w3.org/2000/svg" width="63" height="60" viewBox="0 0 531.76 255.18"><defs><style>.cls-1{fill:#fdb90e;}.cls-2{fill:#fff;}.cls-3{fill:none;stroke:#000;}.cls-3,.cls-4{stroke-miterlimit:10;stroke-width:5px;}.cls-4{stroke:#fdb90e;}</style></defs><g id="Layer_2" data-name="Layer 2"><g id="Layer_1-2" data-name="Layer 1"><path d="M157.7,14.3l-28.23,96.36q28.8-.37,37.45-2.26a59.49,59.49,0,0,0,25.6-12Q204,87.32,211.71,71.14h7.34L189.88,171.82h-7.52a87.77,87.77,0,0,0,1.88-15.62q0-11.67-4.8-18.63a24.14,24.14,0,0,0-12.33-9.51q-7.53-2.53-41.4-3.29l-23,79.6-4.52,16a47.53,47.53,0,0,0-.94,9.22q0,6.58,2.54,10.35t8.19,5.93q5.64,2.16,21.45,2.35l-2.07,7H0l2.07-7q18.43,0,26.91-6.87t15.24-30L89.77,55.14q7.14-24.64,7.52-31.62a15.13,15.13,0,0,0-6-11.19Q85.63,7.71,68.12,7L70,0H278.52L261.39,67.37h-7Q253.31,46.3,247.84,36t-18-16q-12.51-5.73-40-5.74Z"/><rect x="210.12" y="165" width="90" height="90"/><rect class="cls-1" x="248.13" y="175" width="14" height="68"/><rect class="cls-1" x="248.13" y="175" width="14" height="68" transform="translate(464.13 -46.12) rotate(90)"/><rect x="307.13" y="165" width="90" height="90"/><rect class="cls-2" x="345.13" y="175" width="14" height="68" transform="translate(561.13 -143.12) rotate(90)"/><rect x="262.13" y="70" width="90" height="90"/><rect class="cls-2" x="300.12" y="80" width="14" height="68" transform="translate(170.57 -183.78) rotate(45)"/><rect class="cls-2" x="300.12" y="80" width="14" height="68" transform="translate(604.91 -22.56) rotate(135)"/><rect x="423.12" y="144" width="90" height="90" transform="translate(3.47 386.37) rotate(-45)"/><rect class="cls-1" x="460.42" y="154.29" width="14" height="68" transform="translate(270.05 -275.36) rotate(45)"/><circle class="cls-1" cx="451.86" cy="172.74" r="11"/><circle class="cls-1" cx="482.97" cy="203.85" r="11"/><path class="cls-3" d="M366.12,70s84.48-36.89,96.74,52.55"/><line class="cls-4" x1="345.78" y1="62.46" x2="349.63" y2="47.5"/><line class="cls-4" x1="353.63" y1="63.5" x2="362.63" y2="51.5"/><line class="cls-4" x1="455.83" y1="127.59" x2="444.08" y2="122.55"/><line class="cls-4" x1="471.97" y1="122.55" x2="477.02" y2="114"/></g></g></svg>